# AST/ASF file generated using VICON BodyLanguage
# -----------------------------------------------
:version 1.10
:name VICON
:units
  mass 1.0
  length 0.45
  angle deg
:documentation
   .ast/.asf automatically generated from VICON data using
   VICON BodyBuilder and BodyLanguage model FoxedUp or BRILLIANT.MOD
:root
   order TX TY TZ RX RY RZ
   axis XYZ
   position 0 0 0  
   orientation 0 0 0 
:bonedata
  begin
     id 1 
     name lhipjoint
     direction 0.602128 -0.715006 0.355257 
     length 2.21237 
     axis 0 0 0  XYZ
  end
  begin
     id 2 
     name lfemur
     direction 0.34202 -0.939693 0  
     length 6.71649  
     axis 0 0 20  XYZ
    dof rx ry rz
    limits (-160.0 20.0)
           (-70.0 70.0)
           (-60.0 70.0)
  end
  begin
     id 3 
     name ltibia
     direction 0.34202 -0.939693 0   
     length 6.97123   
     axis 0 0 20   XYZ
    dof rx
    limits (-10.0 170.0)
  end
  begin
     id 4 
     name lfoot
     direction 0.0655697 -0.180151 0.981451   
     length 1.80924   
     axis -90 7.62852e-016 20   XYZ
    dof rx rz
    limits (-45.0 90.0)
           (-70.0 20.0)
  end
  begin
     id 5 
     name ltoes
     direction 1.53545e-011 -4.21827e-011 1   
     length 0.916331   
     axis -90 7.62852e-016 20   XYZ
    dof rx
    limits (-90.0 20.0)
  end
  begin
     id 6 
     name rhipjoint
     direction -0.625414 -0.698792 0.347201   
     length 2.2637  
     axis 0 0 0  XYZ 
  end
  begin
     id 7 
     name rfemur
     direction -0.34202 -0.939693 0   
     length 7.07595   
     axis 0 0 -20   XYZ
    dof rx ry rz
    limits (-160.0 20.0)
           (-70.0 70.0)
           (-70.0 60.0)
  end
  begin
     id 8 
     name rtibia
     direction -0.34202 -0.939693 0   
     length 7.22924   
     axis 0 0 -20   XYZ
    dof rx
    limits (-10.0 170.0)
 end
 begin
     id 9 
     name rfoot
     direction -0.0766747 -0.210662 0.974547   
     length 1.98482  
     axis -90 -7.62852e-016 -20   XYZ
    dof rx rz
    limits (-45.0 90.0)
           (-20.0 70.0)
  end
  begin
     id 10 
     name rtoes
     direction -1.53532e-011 -4.21867e-011 1   
     length 0.999842   
     axis -90 -7.62852e-016 -20   XYZ
    dof rx
    limits (-90.0 20.0)
  end
  begin
     id 11 
     name lowerback
     direction -0.0224668 0.997354 -0.0691422   
     length 2.09945   
     axis 0 0 0   XYZ
    dof rx ry rz
    limits (-20.0 45.0)
           (-30.0 30.0)
           (-30.0 30.0)
  end
  begin
     id 12 
     name upperback
     direction 0.0134698 0.998451 -0.0539888   
     length 2.09758   
     axis 0 0 0   XYZ
    dof rx ry rz
    limits (-20.0 45.0)
           (-30.0 30.0)
           (-30.0 30.0)
  end
  begin
     id 13 
     name thorax
     direction 0.0241905 0.99948 -0.0213333   
     length 2.10428   
     axis 0 0 0   XYZ
    dof rx ry rz
    limits (-20.0 45.0)
           (-30.0 30.0)
           (-30.0 30.0)
  end
  begin
     id 14 
     name lowerneck
     direction -0.00866847 0.995978 0.0891737   
     length 1.3959   
     axis 0 0 0   XYZ
    dof rx ry rz
    limits (-20.0 45.0)
           (-30.0 30.0)
           (-30.0 30.0)
  end
  begin
     id 15 
     name upperneck
     direction 0.0680679 0.992203 0.104404   
     length 1.39452   
     axis 0 0 0   XYZ
    dof rx ry rz
    limits (-20.0 45.0)
           (-30.0 30.0)
           (-30.0 30.0)
  end
  begin
     id 16
     name head
     direction 0.0242216 0.999358 0.0264054  
     length 1.40433  
     axis 0 0 0   XYZ
    dof rx ry rz
    limits (-20.0 45.0)
           (-30.0 30.0)
           (-30.0 30.0)
  end
  begin
     id 17 
     name lclavicle
     direction 0.929368 0.362991 -0.0671771  
     length 3.04887  
     axis 0 0 0   XYZ
    dof ry rz
    limits (-20.0 10.0)
           (0.0 20.0)
  end
  begin
     id 18 
     name lhumerus
     direction 1 -4.48967e-011 -7.13741e-028   
     length 4.77195   
     axis -180 -30 -90   XYZ
    dof rx ry rz
    limits (-60.0 90.0)
           (-90.0 90.0)
           (-90.0 90.0)
  end
  begin
     id 19
     name lradius
     direction 1 -4.48977e-011 3.60404e-027   
     length 2.98444   
     axis -180 -30 -90   XYZ
    dof rx
    limits (-10.0 170.0)
  end
  begin
     id 20
     name lwrist
     direction 1 -4.48997e-011 7.54877e-027   
     length 1.49222   
     axis -7.18178e-015 90 90   XYZ
    dof ry
    limits (-180.0 0.0)
 end
  begin
     id 21 
     name lhand
     direction 1 -4.489e-011 1.51105e-026   
     length 0.992285   
     axis -9.63605e-015 90 90   XYZ
    dof rx rz
    limits (-90.0 90.0)
           (-45.0 45.0)
  end
  begin
     id 22 
     name lfingers
     direction 1 -4.48998e-011 3.01948e-026   
     length 0.800006   
     axis -1.92718e-014 90 90   XYZ
    dof rx
    limits (0.0 90.0)
  end
  begin
     id 23
     name lthumb
     direction 0.707107 -6.34881e-011 0.707107   
     length 1.14865   
     axis -90 45 -3.53137e-014   XYZ
    dof rx rz
    limits (-45.0 45.0)
           (-45.0 45.0)
  end
  begin
     id 24 
     name rclavicle
     direction -0.945672 0.324529 0.0196374   
     length 3.4236  
     axis 0 0 0   XYZ 
    dof ry rz
    limits (-10.0 20.0)
           (-20.0 0.0)
  end
  begin
     id 25 
     name rhumerus
     direction -1 -4.4896e-011 1.02757e-029  
     length 4.62052   
     axis -180 30 90   XYZ
    dof rx ry rz
    limits (-90.0 60.0)
           (-90.0 90.0)
           (-90.0 90.0)
  end
  begin
     id 26 
     name rradius
     direction -1 -4.48982e-011 3.85962e-027   
     length 2.95332   
     axis -180 30 90   XYZ
    dof rx
    limits (-10.0 170.0)
  end
  begin
     id 27 
     name rwrist
     direction -1 -4.48961e-011 7.55118e-027   
     length 1.47666   
     axis -7.18178e-015 -90 -90   XYZ
    dof ry
    limits (-180.0 0.0)
  end
  begin
     id 28
     name rhand
     direction -1 -4.48984e-011 1.50994e-026   
     length 0.990956   
     axis -9.63605e-015 -90 -90   XYZ
    dof rx rz
    limits (-90.0 90.0)
           (-45.0 45.0)
  end
  begin
     id 29
     name rfingers
     direction -1 -4.4892e-011 3.02158e-026   
     length 0.798934   
     axis -1.92718e-014 -90 -90   XYZ
    dof rx
    limits (0.0 90.0)
  end
  begin
     id 30
     name rthumb
     direction -0.707107 -6.34916e-011 0.707107   
     length 1.14711   
     axis -90 -45 3.53137e-014   XYZ
    dof rx rz
    limits (-45.0 45.0)
           (-45.0 45.0)
  end
:hierarchy
  begin
    root lhipjoint rhipjoint lowerback
    lhipjoint lfemur
    lfemur ltibia
    ltibia lfoot
    lfoot ltoes
    rhipjoint rfemur
    rfemur rtibia
    rtibia rfoot
    rfoot rtoes
    lowerback upperback
    upperback thorax
    thorax lowerneck lclavicle rclavicle
    lowerneck upperneck
    upperneck head
    lclavicle lhumerus
    lhumerus lradius
    lradius lwrist
    lwrist lhand lthumb
    lhand lfingers
    rclavicle rhumerus
    rhumerus rradius
    rradius rwrist
    rwrist rhand rthumb
    rhand rfingers
  end

#!OML:ASF H:\ManfredObstacles\Project 1\Capture day 1\Session 1\Male.ASF
:FULLY-SPECIFIED
:DEGREES
172
root -9.88931 16.0832 31.9925 -171.003 -0.301963 -180.698
lowerback -9.66744 -0.58258 -3.52228
upperback 1.39661 -0.333261 -0.609464
thorax 6.9242 -0.298456 1.28961
lowerneck 0.248297 -1.48294 -4.99233
upperneck -7.22539 -1.32986 7.92071
head -2.27983 -0.602866 3.51738
rclavicle 4.62174e-015 2.62396e-014
rhumerus -34.0238 -19.6137 -79.2222
rradius 27.7669
rwrist 29.6579
rhand 0.4583 -5.49169
rfingers 7.12502
rthumb 26.0293 -33.7286
lclavicle 4.62174e-015 2.62396e-014
lhumerus -41.7797 42.0301 57.4539
lradius 11.8925
lwrist -59.0704
lhand -6.53888 10.7042
lfingers 7.12502
lthumb 19.3143 39.765
rfemur 2.13587 0.326504 21.2607
rtibia 26.3999
rfoot -12.1303 15.6907
rtoes 25.5019
lfemur -29.9309 -2.37589 -20.0802
ltibia 20.4969
lfoot 6.02524 -2.83612
ltoes 23.5772
173
root -9.93 16.1162 31.7581 -171.057 -0.368184 -180.774
lowerback -9.63308 -0.512719 -3.72449
upperback 1.32671 -0.218753 -0.666795
thorax 6.82563 -0.248227 1.3612
lowerneck 0.303857 -1.61844 -5.07935
upperneck -7.19093 -1.49098 8.25838
head -2.26639 -0.686453 3.65533
rclavicle -5.96354e-016 -2.90226e-014
rhumerus -34.4589 -19.6525 -79.0633
rradius 27.8085
rwrist 29.4746
rhand 0.537483 -5.50492
rfingers 7.12502
rthumb 26.1051 -33.7307
lclavicle -5.96354e-016 -2.90226e-014
lhumerus -40.3039 39.5532 59.8199
lradius 12.3245
lwrist -56.036
lhand -6.13523 11.0322
lfingers 7.12502
lthumb 19.7024 40.0537
rfemur 1.04579 -0.543529 20.8713
rtibia 29.8337
rfoot -9.60453 15.3793
rtoes 24.7448
lfemur -29.2075 -1.80442 -20.5493
ltibia 21.076
lfoot 5.66669 -4.03506
ltoes 23.1035
174
root -9.97744 16.1468 31.5305 -171.015 -0.207459 -180.594
lowerback -9.65909 -0.406205 -3.57635
upperback 1.23325 -0.0956665 -0.681921
thorax 6.73371 -0.179852 1.28129
lowerneck 0.328743 -1.71137 -4.95664
upperneck -7.18095 -1.60141 8.37699
head -2.25931 -0.745439 3.67496
rclavicle 5.46658e-016 -1.31198e-014
rhumerus -34.8038 -19.2045 -79.1131
rradius 27.9752
rwrist 29.1116
rhand 0.985151 -5.56607
rfingers 7.12502
rthumb 26.5336 -33.7278
lclavicle 5.46658e-016 -1.31198e-014
lhumerus -38.7709 36.6164 62.4154
lradius 12.8829
lwrist -52.4016
lhand -5.68476 10.9236
lfingers 7.12502
lthumb 20.1354 39.9001
rfemur -0.601528 -1.46308 20.6437
rtibia 33.7983
rfoot -6.09037 14.8033
rtoes 26.8664
lfemur -28.4546 -1.27365 -20.6909
ltibia 21.3578
lfoot 4.84187 -5.20727
ltoes 21.1016
175
root -10.0326 16.1726 31.3158 -170.776 0.250366 -180.425
lowerback -9.75058 -0.267215 -3.26196
upperback 1.07016 0.118751 -0.786098
thorax 6.60322 -0.0318744 1.03129
lowerneck 0.218021 -1.77438 -4.83728
upperneck -7.06293 -1.66649 8.57429
head -2.19468 -0.77883 3.71746
rclavicle 5.46658e-016 5.1684e-015
rhumerus -35.0594 -18.4397 -79.4186
rradius 28.2262
rwrist 28.6951
rhand 1.4912 -5.60926
rfingers 7.12502
rthumb 27.0179 -33.6969
lclavicle 5.46658e-016 5.1684e-015
lhumerus -37.1796 32.8634 65.3687
lradius 13.6744
lwrist -47.9755
lhand -5.4128 10.8908
lfingers 7.12502
lthumb 20.3967 39.8396
rfemur -2.91492 -2.33853 20.278
rtibia 38.2565
rfoot -2.22989 13.875
rtoes 27.8665
lfemur -27.8004 -0.762031 -20.846
ltibia 21.3209
lfoot 4.30953 -5.51971
ltoes 22.3305
176
root -10.066 16.1951 31.0897 -171.007 -0.174305 -180.77
lowerback -9.52772 -0.436134 -3.77049
upperback 1.10451 -0.118668 -0.883358
thorax 6.52358 -0.19351 1.17589
lowerneck 0.169063 -1.81596 -4.7931
upperneck -6.96733 -1.7069 8.78492
head -2.15056 -0.800206 3.78074
rclavicle 2.68359e-015 1.74931e-014
rhumerus -35.1691 -17.7338 -79.6704
rradius 28.3394
rwrist 28.7577
rhand 1.76363 -5.48087
rfingers 7.12502
rthumb 27.2785 -33.5278
lclavicle 2.68359e-015 1.74931e-014
lhumerus -35.8928 28.4683 68.4758
lradius 14.8671
lwrist -42.9531
lhand -5.18664 11.1172
lfingers 7.12502
lthumb 20.6141 40.0426
rfemur -4.70173 -3.80039 19.6729
rtibia 43.0241
rfoot 0.0305345 12.9335
rtoes 24.054
lfemur -26.5011 -0.300085 -21.5889
ltibia 21.0362
lfoot 4.07804 -6.39705
ltoes 25.2736
177
root -10.108 16.2184 30.8777 -171.007 -0.264003 -181.135
lowerback -9.45796 -0.559064 -4.18019
upperback 1.10074 -0.238132 -1.001
thorax 6.48819 -0.26705 1.26456
lowerneck 0.0838597 -1.85801 -4.76593
upperneck -6.84015 -1.75944 8.91251
head -2.08844 -0.826096 3.81677
rclavicle -5.41688e-015 3.97569e-015
rhumerus -35.2091 -17.2277 -79.8207
rradius 28.5295
rwrist 29.1321
rhand 2.1063 -5.33668
rfingers 7.12502
rthumb 27.6062 -33.3316
lclavicle -5.41688e-015 3.97569e-015
lhumerus -34.987 24.5373 71.074
lradius 16.1748
lwrist -38.5311
lhand -5.03994 11.29
lfingers 7.12502
lthumb 20.755 40.2001
rfemur -7.11558 -4.99403 18.9626
rtibia 47.9775
rfoot 2.80639 11.3395
rtoes 24.3139
lfemur -25.3413 0.276615 -22.3471
ltibia 20.4453
lfoot 3.99158 -7.17078
ltoes 27.0484
178
root -10.1499 16.235 30.6818 -170.844 -0.0312465 -181.337
lowerback -9.48799 -0.603415 -4.437
upperback 1.09281 -0.267043 -1.05597
thorax 6.50022 -0.29151 1.3463
lowerneck -0.0667255 -1.87476 -4.91758
upperneck -6.71808 -1.7728 9.1334
head -2.01814 -0.827459 3.91948
rclavicle 3.72721e-015 2.54444e-014
rhumerus -35.1666 -16.7724 -79.9771
rradius 28.8634
rwrist 29.2164
rhand 2.33936 -5.20305
rfingers 7.12502
rthumb 27.8291 -33.1622
lclavicle 3.72721e-015 2.54444e-014
lhumerus -34.2814 21.9811 72.8403
lradius 17.2606
lwrist -35.7282
lhand -5.0379 11.3177
lfingers 7.12502
lthumb 20.757 40.2275
rfemur -10.0216 -5.69308 18.4788
rtibia 52.8605
rfoot 4.72699 9.67169
rtoes 21.7258
lfemur -24.2881 0.784597 -22.8626
ltibia 19.5551
lfoot 3.90333 -7.70942
ltoes 27.5196
